<svg xmlns="http://www.w3.org/2000/svg" viewBox="0 0 1120.8929 402.84804">
   <g>
      <path d="m 463.8478,68.252832 c -1.2936,-0.03892 -2.59712,0.122617 -3.84962,0.49512 -19.33999,4.65 -38.50972,10.110855 -57.21972,16.880857 -13.98,5.000003 -27.62119,11.158733 -39.97119,19.448731 -5.02,3.38 -9.88947,6.98117 -14.45947,10.95117 -1.08,0.95 -2.26934,1.94971 -2.56934,3.44971 1.46,9.02 10.04973,13.8799 17.46972,17.6499 12.19001,5.61 25.92915,8.82957 39.36915,7.30957 -4,-3.4 -9.56004,-3.93922 -13.79004,-6.94921 -1.72,-1.29 -1.75924,-3.6105 -2.21924,-5.5005 -4.13,0.82 -8.05063,2.4001 -12.14062,3.3501 3.76999,-2.32 7.87052,-4.03031 11.79052,-6.07031 20.96,-8.99 43.61936,-12.86043 66.08936,-15.94043 15.66,-1.71 31.65029,-2.24998 46.80029,-6.97998 -1.23,-3.4 -1.85024,-8.389433 -6.24024,-8.919436 -9.44,-4.929997 -13.95892,-15.090405 -19.39892,-23.670405 -1.995,-3.465 -5.77986,-5.388165 -9.66064,-5.504887 z"/>
      <path d="m 657.75646,68.266017 c -2.99842,-0.0459 -5.99362,0.835725 -8.13862,3.021975 -3.03,3.159997 -4.7904,7.239645 -7.11038,10.889647 -3.32,5.780003 -7.60906,11.140725 -13.28906,14.740725 -1.46,0.96 -3.67981,0.779783 -4.54981,2.52978 -1.29999,2.140006 -2.13105,4.560746 -2.58105,7.010746 15.17,4.52 31.07015,4.99921 46.6802,6.94921 24.75997,3.12 49.8003,7.66007 72.3603,18.81006 1.91002,1.04001 3.86002,2.07942 5.77005,3.14942 -4.11,-1.06 -8.14973,-2.40008 -12.21975,-3.58008 -0.66998,2.04 -0.7407,4.61014 -2.74073,5.89014 -4.17,2.81 -9.6189,3.33121 -13.3989,6.74121 6.42,0.86 12.92858,0.25982 19.26855,-0.93017 12.33998,-2.4 24.92018,-6.98985 33.93015,-16.08985 l 0.10988,0.0395 c 1.98,-2.67 3.06,-5.81986 3.45997,-9.10986 -14.43997,-13.37001 -31.899,-23.180433 -50.20897,-30.190436 -20.61,-7.95 -41.8896,-14.040015 -63.32963,-19.27002 -1.28437,-0.368745 -2.64922,-0.581197 -4.0122,-0.602047 z"/>
      <path d="m 560.56996,0.00137037 c -0.8675,-0.032475 -1.73258,0.51154499 -1.89258,1.70654243 -3.56,11.7300002 -6.72873,23.8602752 -13.44873,34.2802722 -2.42,3.84 -5.91107,6.889612 -9.85107,9.099607 -9.52,5.440005 -20.13906,8.449965 -30.53907,11.709968 -1.63999,0.429997 -2.9699,1.50015 -4.1499,2.660152 1.2,0.999998 2.44902,2.019983 3.99903,2.47998 11.18,3.57 22.76001,6.690547 32.77002,13.060545 5.93,3.66 9.40029,9.959595 12.30029,16.079595 h 0.0893 c 3.71001,8.539995 6.24045,17.500368 8.96046,26.380368 0.76999,2.56 3.84062,1.06996 3.89062,-1.04004 2.28,-8.52 5.1591,-16.850546 8.3291,-25.060548 l -0.21972,-0.588863 0.68994,-0.200685 c 1.88,-3.219997 3.36021,-6.689632 5.72021,-9.619627 2.89,-3.99 7.17018,-6.589883 11.43018,-8.879888 1.54999,-0.739995 3.12043,-1.480447 4.69042,-2.210445 7.45001,-3.09 15.15889,-5.469847 22.85889,-7.839847 1.52001,-0.669997 4.05084,-1.129845 3.61084,-3.33984 -1.39999,-1.17 -3.13984,-1.790317 -4.83984,-2.320312 -10.12,-3.09 -20.38984,-6.149985 -29.58985,-11.47998 -3.94999,-2.240003 -7.35095,-5.400743 -9.73095,-9.260745 -6.52,-10.340002 -9.70895,-22.269862 -13.16895,-33.8598597 -0.17,-1.11500244 -1.04119,-1.72385243 -1.90869,-1.75634993 z"/>
   </g>
   <g>
      <path d="m 107.16128,77.110744 c -7.12119,-0.04275 -14.24385,0.61746 -21.232912,2.006835 -24.27,4.880003 -46.150725,19.310783 -61.240724,38.800781 -8.34,10.82 -14.8001777,23.07961 -18.9301727,36.09961 -4.2899999,13.52 -6.23015987,27.79045 -5.66015988,41.96045 0.32999999,7.53 1.24019998,15.03988 2.95019998,22.37988 1.249995,5.51 2.8998974,10.91996 4.8998999,16.20996 l 0.10986,0.0498 c 2.8600047,7.86001 6.8003177,15.29983 11.3203127,22.31983 0.670005,0.66 1.00059,2.20969 2.100585,2.17969 l -0.499508,0.12012 c 6.18,8.97999 13.719705,17.00083 22.199707,23.86083 l 0.29004,0.0103 c 7.909995,6.57 17.01984,11.6599 26.58984,15.3999 13.540005,5.38 28.250257,7.40944 42.760252,6.66943 23.57,-0.87999 47.74963,-5.51013 68.11963,-17.89013 6.24,-3.22 11.86023,-7.80012 16.74024,-12.87012 0.03,-5.02 0.0291,-10.0398 0.0791,-15.04981 -0.01,-7.87999 0.13115,-15.75939 -0.0689,-23.62938 0.3,-5.15001 -0.51116,-10.50991 1.56885,-15.39991 l -0.18018,0.23877 c 2.11,-3.95 5.42143,-7.26973 9.46143,-9.21973 3.67,-2.01999 8.30959,-2.04978 11.57959,-4.77978 -0.03,-0.55 -0.10038,-1.65019 -0.13038,-2.2002 -2.71999,-0.38001 -5.45994,-0.23025 -8.18994,-0.24025 -33.32,0.02 -66.63947,-0.01 -99.95947,0.0205 -1.98,-0.51 -4.46115,1.33965 -2.93115,3.38966 2.36,2.28 5.9109,2.60008 8.9209,3.58007 9,1.87001 17.75043,6.06096 23.44043,13.48096 1.78999,3.42 3.58886,7.00875 3.58886,10.96875 0.12,11.73 -0.0994,23.45115 0.0806,35.18115 -0.43,6.02 -0.45981,12.26912 -3.0498,17.84912 -4.72,5.17 -12.43034,2.97004 -18.59034,3.29004 -10.62,-1.58 -20.62011,-6.36 -28.620115,-13.5 -7.44,-6.59 -13.439857,-14.68896 -18.10986,-23.43896 -4.160002,-7.94001 -7.330387,-16.36074 -9.650392,-25.01075 -1.219995,-5.04 -2.200057,-10.13023 -3.06006,-15.24023 -1.059997,-9.12 -1.59945,-18.30022 -1.189447,-27.47021 0.669997,-11.52 2.550015,-22.96004 5.77002,-34.04004 l 0.139155,-0.009 c 3.590002,-12.09 9.230234,-23.57045 16.740239,-33.71045 4.86,-5.94 10.240935,-11.55 16.71093,-15.75 10.65001,-7.229998 24.26012,-10.270911 36.87012,-7.190916 13.61,3.130005 24.90004,12.440766 33.29004,23.280766 5.45,7.31 9.81901,15.36957 13.229,23.80957 1.5,3.94 2.921,7.90974 4.021,11.98974 0.76,2.49 1.08865,5.33092 3.11865,7.19092 3.35,-6.26 2.65041,-13.66074 3.42041,-20.51074 0.38,-6.88 0.55103,-13.7699 0.56104,-20.6499 -0.25001,-6.93 0.12916,-14.08951 -2.11085,-20.74951 -12.43999,0.31999 -24.24951,-4.199851 -34.9995,-10.089848 -15.88438,-8.88375 -34.06851,-13.588478 -52.26709,-13.697753 z"/>
      <path d="m 211.67641,148.84268 c -0.57265,-0.0103 -1.14576,-0.004 -1.71826,0.0161 4.42,4.39001 10.39918,7.38985 13.40918,13.08985 4.26,8.12 4.28061,17.58978 4.1206,26.52978 0.11001,7.58 0.01,15.16024 0.0395,22.74024 0.02,8.14999 0,16.2892 0,24.42919 4.21999,-4.14 8.7498,-7.97896 13.5498,-11.43896 6.65,-4.77 13.74012,-8.89041 21.12012,-12.42041 -0.01,-7.45 -0.009,-14.90033 -0.009,-22.34033 0.1,-4.26 -0.20084,-8.52929 0.13917,-12.7793 0.49999,-3.99999 4.46043,-6.95109 8.44042,-6.62109 8.31,0.03 16.62018,-0.0797 24.93018,0.0703 6.93,0.21001 13.42988,3.31954 18.62988,7.76953 6.34,5.94 10.71045,13.68133 13.46045,21.86133 0.27,-0.32 0.80959,-0.98078 1.07959,-1.30078 0.99,-6.95 -0.21027,-14.04994 -1.28027,-20.93994 -1.40001,-6.57 -3.25953,-13.03937 -5.51954,-19.35938 -24.15,0.02 -48.3804,0.27008 -72.4204,-2.41992 -11.05001,-1.5 -21.96938,-3.87099 -32.85938,-6.27099 -1.68,-0.405 -3.39433,-0.5843 -5.1123,-0.61524 z"/>
      <path d="m 305.14516,207.15664 c -2.46917,0.008 -4.97203,0.3041 -7.34765,0.50098 -24.07001,3.13 -47.22006,13.20999 -66.06006,28.5 -6.33,5.52999 -12.05951,11.74077 -16.99952,18.55077 -4.08999,5.87001 -7.81992,12.02034 -10.66992,18.59034 6.95001,-4.61 14.21014,-8.73027 21.64014,-12.53028 0.6,-0.27 1.20959,-0.5398 1.82959,-0.7998 -0.01,1.21 -0.0103,2.42014 -0.0103,3.64014 0.48,6.14 -0.81963,12.16893 -2.86964,17.89893 l 0.27979,0.67089 -0.8291,0.24903 c -4.28,8.55 -11.97018,14.50072 -18.93018,20.74072 5.32,0.16 10.42033,-1.53979 15.59034,-2.52979 13.81999,-2.96 27.97935,-3.95068 42.08935,-3.95068 21.75,0.02 43.51025,-0.0392 65.26025,0.0308 2.75,-7.06001 4.8099,-14.37051 6.3999,-21.77051 1.00001,-5.75 1.57955,-11.57967 1.53956,-17.40967 -0.14001,-1.49 0.0605,-3.65996 -1.70948,-4.20996 -2.7,7.83 -7.05088,15.09924 -12.90088,20.96924 -6.09,5.88 -14.24928,9.69011 -22.75927,9.87011 -9.65,0.06 -19.29946,0.0503 -28.93945,0.0103 -2.39001,0.12 -4.29102,-1.44008 -6.04102,-2.83007 -0.78,-1.84001 -1.64904,-3.71977 -1.51904,-5.75977 -0.04,-5.20001 0.0195,-10.39008 -0.0205,-15.58008 0.06,-4.42 0.0105,-8.83951 0.0205,-13.24952 1.53999,-0.39999 3.0789,-0.79041 4.62891,-1.1704 3.36,-0.75 6.74085,-1.45059 10.13085,-2.10059 17.44,-3.09 35.15888,-4.47006 52.85888,-4.56006 1.02,-0.07 2.02051,-0.23951 3.02052,-0.49951 -1.08,-2.98 -2.97016,-5.63963 -5.66016,-7.36963 -3.21,-1.89 -6.98985,-2.65093 -10.08984,-4.71094 -4.87001,-4.16 -4.03919,-11.35874 -2.90919,-16.96874 -2.72812,-1.76625 -5.84878,-2.23274 -9.02343,-2.22217 z"/>
      <path d="m 461.34291,158.12246 c -10.2325,-10e-4 -20.46433,0.041 -30.69433,0.12598 -1.54,3.02 2.74935,3.76965 4.58935,4.88964 7.35,3.20001 9.23934,12.10059 8.56934,19.3506 0.03,4.56 -0.0493,9.12017 0.0307,13.68017 -0.01,12.31 -0.0705,24.61871 -0.0205,36.92871 0.03,3.66 0.01,7.32047 -0.0103,10.98047 -1.53,-1.94 -3.05936,-3.89008 -4.58936,-5.83008 -5.95,-7.75 -12.0605,-15.38988 -18.0205,-23.12989 -3.71001,-4.71 -7.40008,-9.43917 -11.08008,-14.15917 -3.41001,-4.37 -6.82875,-8.72131 -10.21875,-13.09131 -7.72,-9.92 -15.49045,-19.78996 -23.21045,-29.70996 -12.37,0.05 -24.75061,-0.14918 -37.1206,0.0908 l -0.0395,2.2793 c 3.04,2.43 7.41065,3.11032 9.66065,6.59032 4.86,6.04001 3.23957,14.13075 3.55956,21.26075 -0.01,6.36 -0.0902,12.70908 -0.0103,19.05908 -0.05,5.7 0.0107,11.41084 -0.0293,17.11084 0.04,5.56 -0.011,11.12896 0.019,16.68897 -0.04,8.11999 0.0502,16.24035 -0.0498,24.36035 -0.10999,5.98999 0.69946,12.13045 -1.06054,17.96044 -1.17,2.26 -2.38918,4.61024 -4.40918,6.24024 -2.1,1.81 -4.88041,2.47902 -7.17041,3.99903 -1.14,0.57999 -0.63033,1.97019 -0.59033,2.95019 20.47,-0.1 40.9509,0.10039 61.4209,-0.0996 0.68,-3.24 -3.01084,-3.85957 -5.11084,-5.05957 -3.96,-1.67 -6.32999,-5.53016 -7.72998,-9.41016 -1.25,-6.77 -0.35995,-13.68074 -0.68995,-20.51074 0.08,-6.9 0.0103,-13.79971 0.0103,-20.69971 0.06,-4.42999 -0.0304,-8.86052 0.0395,-13.29052 -0.03,-3.74001 -0.0193,-7.47899 -0.0293,-11.20899 0.04,-5.06999 -0.0195,-10.14093 0.0205,-15.21093 l -0.12011,-2.03906 c 0.13,-0.06 0.37951,-0.19075 0.49951,-0.26075 2.01999,2.98 4.33002,5.7501 6.52002,8.6001 2.54,3.21 5.03056,6.46064 7.58056,9.66064 4.66001,5.98 9.28952,11.97943 13.99952,17.91943 3.93,5.09 7.87937,10.16973 11.85937,15.21973 6.03,7.56 11.78994,15.37105 17.93994,22.83106 5.01,6.71 10.29035,13.20914 15.36035,19.86914 2.88,3.67 6.05022,7.11052 9.47022,10.29052 5.31,4.49001 11.86037,7.87962 18.88037,8.34961 -0.96,-3.37 -3.37965,-6.03062 -4.88965,-9.14062 l -0.68115,-0.28857 0.33984,-0.40137 c -1.24,-4.35 -3.05992,-8.53902 -3.91992,-12.99903 -0.69,-3.90999 -1.19924,-7.85982 -1.46924,-11.81982 -0.44,-7.92 -0.23029,-15.86053 -0.30029,-23.79053 0.04,-8.79 -0.0105,-17.58037 -0.0205,-26.38037 0.11,-8.21 0.0603,-41.5899 -0.0293,-46.8999 -0.25001,-6.38 2.04019,-13.69012 8.20019,-16.62012 2.15,-1.27999 5.84043,-1.79911 5.44043,-5.09912 -10.23,-0.09 -20.4633,-0.13498 -30.6958,-0.13623 z"/>
      <path d="m 555.46645,128.39199 c -2.84781,0.0173 -5.69608,0.22555 -8.53858,0.68555 -13.99,1.98 -27.36959,9.37025 -35.57959,21.01025 -2.99,4.41 -5.26033,9.28018 -6.59033,14.43018 l 0.0498,0.10986 c -2.48,9.91001 -1.16981,20.44975 2.20019,29.98975 l 0.10987,0.0205 c 2.34,6.49001 6.13959,12.39044 10.82959,17.44044 l 0.15087,-0.0103 c 5.96001,5.9 13.09028,10.52037 20.03028,15.13037 14.22,10.28 29.18984,19.49972 43.08984,30.21973 3.87,3.58 6.59892,8.29954 7.39893,13.53955 0.11,4.53999 -0.42912,9.09007 -2.09913,13.33008 -2.32999,5.01 -6.38017,9.18068 -11.43017,11.45068 -5.81,2.92 -12.48025,2.65895 -18.76025,1.91894 -2.99,-0.48999 -5.94938,-1.13919 -8.85938,-1.9292 -5.73,-1.8 -11.11984,-4.49959 -16.08984,-7.82959 -1.72,-1.34 -3.42033,-2.68029 -5.09034,-4.05029 l -2.35986,-2.08008 c -1.53,-1.57 -3.0498,-3.14023 -4.5498,-4.74023 -3.13,-3.62 -6.0001,-7.44973 -8.6001,-11.46973 -4.18,-6.07 -6.78102,-13.13998 -11.29101,-18.97998 -1.72001,6.14 -1.66953,12.58967 -1.76954,18.90967 0.04,1.93 0.04,3.86932 0.22998,5.79931 0.31001,5.69001 1.06031,11.36042 2.32031,16.92042 1.75001,7.02999 4.41927,14.08064 9.48927,19.41064 7.41,-4.49 16.8312,-3.88105 24.74121,-1.08106 12.97999,4.16001 26.84962,5.10122 40.36962,3.74121 6.28,-0.60999 12.42984,-2.16987 18.33985,-4.37988 8.01,-3.36 15.14988,-8.80093 20.12988,-15.96093 4.48,-6.66 7.25949,-14.42988 8.2295,-22.37988 l 0.13036,0.0806 c 0.57,-4.37 0.7495,-8.78066 0.7295,-13.18066 -0.29001,-9.36 -2.6391,-18.72951 -7.57911,-26.74952 -3.06,-4.81999 -6.89996,-9.06004 -10.95996,-13.04003 -10.05,-8.4 -21.16086,-15.39991 -31.88085,-22.89991 -9.73001,-6.72 -19.68899,-13.10988 -29.20899,-20.12988 -5.69,-4.59999 -9.74992,-11.71047 -8.41992,-19.23047 0.98,-4.14 3.01917,-8.21011 6.65918,-10.62011 6.33,-4.32 14.46006,-4.43944 21.81006,-3.66944 9.39,0.99 18.24997,5.73909 24.22998,13.05909 l 0.0996,-0.009 c 3.87,4.7 6.09013,10.47889 9.64014,15.35889 6.9,5.01 14.19069,10.10021 22.47069,12.47021 0.13001,-4.17999 -1.57044,-8.05014 -2.96044,-11.89014 -2.2,-5.65995 -4.44972,-11.30955 -6.96972,-16.82955 -3.12,-6.45999 -6.77069,-12.66039 -10.70069,-18.65039 -5.63,2.71001 -11.95881,1.53094 -17.77881,0.21094 -8.3325,-1.8225 -16.86867,-3.49881 -25.4121,-3.44678 z"/>
      <path d="m 689.18761,158.09756 c -20.49997,0.22 -40.99972,-0.18932 -61.48972,0.20068 -0.19,3.75 4.30014,3.96945 6.64014,5.68946 6.08,3.75 7.48947,11.55113 6.95947,18.16113 0.08,5.49 -0.0892,10.97949 0.0908,16.47949 l 0.14942,0.62988 c -0.27,2.18001 -0.28923,4.39034 -0.19923,6.59034 -0.03,8.45 -0.0705,16.89937 -0.0205,25.35937 -0.02,3.43 -0.22016,6.87052 0.33984,10.29052 l -0.0806,-0.66064 c 0.10001,0.44 0.30138,1.31049 0.40137,1.75049 -0.12999,0.18 -0.39027,0.56 -0.53027,0.75 -0.34,6.88 -0.0809,13.78041 -0.15088,20.67041 0.01,5.02 4.5e-4,10.04936 -0.0395,15.08936 -0.21,5.11 -1.91975,9.91964 -3.73975,14.63965 l 0.19922,0.66064 -0.60937,0.0996 c -3.69,6.62 -9.07979,11.95963 -14.52979,17.11963 16.97,0.42 31.43999,-10.0192 47.70997,-13.1792 6.27,-1.02001 12.57945,-1.85049 18.95947,-1.75049 1.11998,-3.15 -2.73,-3.95957 -4.79002,-5.05957 -5.39003,-2.35 -8.17905,-8.31067 -8.499,-13.93066 -0.03,-4.97001 0.0989,-9.93893 -0.0412,-14.89893 0.0697,-4.86 0.12015,-9.73106 -0.0495,-14.58105 0.1,-4.23 3.5397,-8.23008 7.9497,-8.08008 14.05995,0.02 28.1199,-0.15893 42.16987,0.10107 1.11,0.6 2.25098,1.19 3.501,1.5 1.95,2.23 2.50988,5.0899 3.10988,7.8999 l -0.61088,0.64014 c 0.12,0.42 0.36053,1.27922 0.48053,1.69922 -0.67005,2.29 -0.2994,4.71959 -0.31935,7.07959 0.01,6.07 -0.13073,12.14998 0.0293,18.22998 -0.27998,5.68 -2.92958,11.78 -8.3496,14.25 -2.13998,1.23 -5.87093,1.80033 -5.23095,5.09033 20.47005,0.08 40.96117,0.1607 61.43115,-0.0293 1.30005,-3.02 -2.5704,-3.7308 -4.4604,-4.82079 -5.4,-2.21001 -8.27055,-8.01006 -8.79053,-13.56006 0,-4.81001 0.0909,-9.63018 -0.0791,-14.43018 0.21,-7.32 0.1197,-14.65973 -0.0105,-21.96973 0.24,-8.31 0.11002,-16.63896 0,-24.93896 0.32002,-11.26 -0.0503,-22.52076 0.0894,-33.78076 0.01,-4.56 -0.26003,-9.38956 2.01997,-13.53955 1.56998,-3.35001 4.57073,-5.76984 7.99073,-7.08984 1.59,-0.76001 4.6299,-1.89022 3.16995,-4.22022 -20.46,-0.17 -40.9404,-0.17975 -61.4004,0.0103 -0.45,3.30001 3.32092,3.81938 5.4609,5.10938 5.22,2.42 7.62877,8.23967 8.19877,13.65967 -0.18,10.44 1.5e-4,20.89007 -0.10987,31.33007 0.12,2.59001 -1.4496,4.72079 -3.0996,6.55079 -1.65,0.67999 -3.32018,1.48013 -5.14013,1.39013 -13.04002,0.02 -26.06992,-10e-4 -39.10987,0.009 -3.39,0.35001 -6.3705,-1.66937 -8.21048,-4.35937 -1.11997,-5.85 -0.3501,-11.83925 -0.58005,-17.73925 -0.01,-2.06001 -0.0195,-4.11088 -0.0398,-6.15088 0.03,-1.66001 0.03,-3.32022 0.0495,-4.97022 -0.60997,-7.15 0.74963,-15.97885 7.82963,-19.56884 2.1,-1.37001 6.66037,-1.94139 5.38035,-5.42139 z"/>
      <path d="m 804.92784,207.19033 c -1.72155,-0.0121 -3.44168,0.0776 -5.15918,0.30762 -1.75995,0.15 -3.291,1.03991 -4.77097,1.8999 0.87997,4.79 1.71082,10.19035 -0.88913,14.61035 -1.02,1.93 -3.16102,2.79963 -4.54102,4.36963 -4.71,0.45 -9.91905,3.32074 -12.24908,7.76074 -0.70995,0.85 -1.21087,2.90022 0.5391,2.72022 14.19,0.14 28.3905,0.91977 42.48045,2.75976 -0.0203,-1.91 -0.01,-3.8097 0,-5.6997 0,-3.28 -0.01,-6.55006 0,-9.81006 0,-5.68 -0.0203,-11.35002 0,-17.02002 -5.0775,-0.9 -10.24545,-1.86188 -15.41017,-1.89844 z"/>
      <path d="m 864.88831,227.08877 c -0.0203,8.69 -0.051,17.37982 -0.0412,26.06982 l 0.3003,-0.54053 c 13.95,5.58001 27.40972,12.40016 39.96975,20.66016 -4.34003,-9.97 -10.48965,-19.09048 -17.6397,-27.25048 -6.52995,-7.41 -14.24933,-13.69897 -22.58933,-18.93897 z"/>
      <path d="m 822.44011,158.09463 c -6.86497,0.007 -13.72477,0.0868 -20.57227,0.35303 0.03,0.49 0.10035,1.46092 0.13035,1.94092 5.37997,2.85999 12.16957,2.81945 16.82955,7.18945 4.5,3.42 5.94982,9.26015 5.29987,14.66015 0.09,14.98 -0.0293,29.95995 0.0203,44.93994 0.0503,8.53001 -0.14017,17.06082 0.0495,25.59083 -0.18,3.46999 -0.06,6.93942 -0.0495,10.41943 -0.0503,5.37 0.0903,10.74914 -0.15967,16.11914 -2.00003,7.42 -9.3309,11.61074 -16.42088,13.01074 -2.25,0.83 -6.20932,0.85035 -6.02932,4.11035 2.48002,0.3 5.00025,0.32942 7.51027,0.14942 0.66998,-0.01 2.01945,-0.0296 2.68943,-0.0395 22.68,0.36 45.36959,0.0299 68.05957,0.16992 1.47,-0.09 4.4706,0.44928 3.83055,-1.99071 -2.76998,-2.20001 -6.5502,-2.27952 -9.7602,-3.49952 -4.71,-1.41 -8.81993,-4.51996 -11.35988,-8.70996 l -0.77932,-0.15967 0.2388,-0.76025 c -1.11,-4.3 -0.77903,-8.74965 -0.76905,-13.13965 -0.01,-7.3 -0.0405,-14.60088 -0.0105,-21.90087 -0.01,-9.53001 0.0195,-19.04886 -0.0308,-28.56885 0.08,-10.68 0.0202,-21.36053 0.0105,-32.04053 0.25995,-4.78 -0.87945,-10.02981 1.87057,-14.2998 3.08003,-5.23 8.96918,-7.86038 14.67923,-9.13038 2.26995,-0.84 6.00112,-0.83928 6.1611,-4.00927 -9.00998,-0.79001 -18.07988,-0.1401 -27.10988,-0.3501 -11.43119,0.125 -22.88707,-0.0664 -34.32854,-0.0542 z"/>
      <path d="m 1120.7877,89.598537 c -8.61,0.939997 -16.9592,3.629745 -25.4692,5.239747 -23.17,5.179996 -46.3703,10.250466 -69.5303,15.480466 -1.34,-0.01 -3.6796,1.84879 -1.8295,3.00879 5.4199,2.01 11.7696,2.5208 15.9096,7.0708 5.6,5.16 6.2694,13.1393 5.9194,20.2793 -0.15,6.7 -0.1,13.41084 0.01,20.11084 -0.15,10.65 -0.13,21.31021 0,31.97021 -0.24,6.54001 -0.01,13.08916 -0.089,19.63916 -10.14,-8.47999 -20.2414,-17.01949 -30.4014,-25.47949 -10.45,-8.85 -20.97902,-17.61018 -31.45899,-26.43018 -12.71003,-10.71999 -25.49993,-21.35033 -38.18993,-32.09033 -13.60005,1.97 -27.18007,4.05975 -40.79002,5.98975 -2.13008,0.68 -6.56993,-0.27963 -6.16995,3.13037 3.42997,3.07 8.7297,2.23045 12.67965,4.46045 6.95002,3.03 10.5699,10.80942 9.85987,18.14941 -0.09,10.28 -0.0892,20.57108 -0.0292,30.85108 -0.0203,8.71 -0.09,17.42867 0,26.13867 -0.0503,8.01 -0.0705,16.02076 -0.0203,24.03076 -0.03,7.04 -0.0308,14.08037 -0.0308,21.13037 0.3,5.6 -0.0503,11.34898 -2.6001,16.45899 -2.79997,5.16 -7.13925,9.48045 -12.48922,11.96044 -2.35005,1.32 -5.17965,1.97948 -7.07963,3.95948 -0.93,2.43 2.30933,2.12115 3.77933,2.18115 6.07995,-0.13 12.18075,0.19982 18.2607,-0.18018 h 0.56985 c 16.02,0.38 32.06985,0.0496 48.10987,0.15967 8.73998,-0.19 17.5197,0.37996 26.23973,-0.29004 1.62997,-1.87 -1.07018,-3.11026 -2.43015,-3.76025 -5.18003,-2.26001 -10.3194,-5.00027 -13.87943,-9.53027 -4.2,-5.32001 -6.1503,-12.13917 -5.5503,-18.88917 0.01,-5.43 -0.0203,-10.87103 0,-16.31103 0.01,-9.62 -0.0105,-19.2494 -0.0105,-28.8794 0.01,-8.08999 0.03,-16.17927 0,-24.25927 0.03,-5.26 -0.01,-10.51025 0.0105,-15.76025 4.36005,3.6 8.6205,7.29914 13.0005,10.86914 6.86003,5.80999 13.71992,11.62107 20.64992,17.35107 12.64,10.72 25.3998,21.28881 38.0098,32.02881 0,0.69 -0.011,2.07123 -0.02,2.76123 0.31,7.77 1.11,15.62982 3.4599,23.06982 1.2701,4.71 3.0399,9.2889 5.2998,13.62891 2.5601,5.09 5.7006,9.90994 9.4806,14.18994 7.68,9.08 17.6098,16.26053 28.6098,20.79053 1.85,0.73999 4.8407,1.52072 5.6807,-1.00928 0.81,-9.97 0.25,-20.02051 0.29,-30.02051 0.26,-11.14 -0.021,-22.29067 0.079,-33.43066 -0.09,-12.08001 0.2308,-24.17877 -0.1992,-36.23877 0.46,-14.1 0.1589,-28.2401 0.1289,-42.3501 0.22,-16.07 0,-32.15119 0.1011,-48.22119 0.39,-11.51 8.1003,-21.57926 17.6103,-27.489256 1.7,-1.56 5.2791,-2.599725 4.519,-5.469727 z"/>
   </g>
   <g>
      <path d="m 263.79848,341.61758 c -13.71,0.1 -27.42109,-0.0792 -41.12109,0.0908 0.18,2.53001 3.24097,2.32974 5.00098,3.21973 4.20999,1.18001 7.90003,5.00078 7.79004,9.55079 0.03,11.68999 0.0203,23.37982 0.0103,35.06982 0.17,4.6 -3.51125,8.52898 -7.78125,9.70899 -1.82,0.85999 -4.68963,0.72042 -5.11963,3.19042 13.74,0.32 27.48975,0.0196 41.23975,0.15967 1.67,-0.24 3.94052,0.58105 5.04053,-1.16894 -2.1,-1.16001 -4.39989,-1.83137 -6.62989,-2.65137 -3.73,-1.45 -6.65976,-5.14902 -6.50976,-9.24903 -0.06,-11.01 0.0289,-22.02075 -0.041,-33.03075 -0.15999,-3.03 0.39016,-6.26973 2.66016,-8.46973 2.74,-3.14 7.2198,-3.20916 10.5498,-5.38916 -1.28,-1.52001 -3.39886,-0.86125 -5.08887,-1.03125 z"/>
      <path d="m 349.1183,341.48867 c -10.46,0.42 -20.94039,-0.071 -31.40039,0.24903 l 0.27979,1.60107 c 4.28,1.65 9.11059,4.13908 9.60058,9.30908 0.34,12.3 0.0692,24.62017 0.13917,36.93018 0.16999,4.45999 -3.32874,8.31982 -7.44873,9.56982 -1.97001,0.85 -4.62087,0.89107 -5.63087,3.10108 7.01,0.72999 14.09063,0.12863 21.14063,0.34863 2.02,-0.19 4.45986,0.56123 6.10986,-0.98877 -2.24,-1.82 -5.29089,-2.86055 -6.67089,-5.56055 -1.51001,-2.56 -1.56981,-5.62024 -1.54981,-8.49023 0.07,-10.84001 -0.0599,-21.67049 0.0601,-32.50049 2.29,4.32 3.66979,9.13123 6.27979,13.26123 l -0.29004,0.89941 c 0.31,0.41 0.92047,1.23063 1.23047,1.64063 4.51,10.74 9.49033,21.27926 14.09033,31.98926 2.92,-1.43 4.54008,-4.38022 5.83008,-7.22022 5.87,-13.13 11.70914,-26.2799 17.61914,-39.3999 0.03,10.77 -0.0195,21.54006 0.0205,32.31006 0.08,3.4 -0.58012,7.13008 -3.12012,9.58007 -1.57,1.52 -4.45953,1.84964 -4.76953,4.36964 12.05,0.21999 24.10966,0.0101 36.15967,0.12011 1.67,-0.27 4.02982,0.65029 5.06982,-1.19971 -3.06,-1.78999 -6.85033,-2.05918 -9.59033,-4.40917 -2.19,-1.8 -3.61002,-4.56065 -3.52002,-7.41065 -0.03,-11.7 -0.0388,-23.40033 -0.009,-35.09033 -0.09,-4 2.28935,-8.039 6.08935,-9.479 1.6,-0.86001 3.99053,-1.10126 4.29053,-3.28125 -10.18,-0.22001 -20.37078,0.0111 -30.55078,-0.12891 -5.01,10.89 -9.76946,21.88957 -14.68946,32.80957 -4.98999,-10.94 -9.73002,-22.00969 -14.77002,-32.92969 z"/>
      <path d="m 464.40883,341.62783 c -1.39922,-0.005 -2.80599,0.0478 -4.021,0.82031 1.63001,1.29 3.57044,2.04969 5.44043,2.92969 3.42,1.6 5.41936,5.44088 5.33936,9.15088 0.03,11.66 0.01,23.32951 0,34.99951 0.19,4.56 -3.41891,8.45969 -7.6289,9.67969 -1.83,0.92 -4.9102,0.71055 -5.2002,3.31054 15.3,0.10001 30.59941,0.10023 45.89941,0.0103 -0.16,-2.33 -2.69033,-2.32076 -4.34033,-3.03076 -4.05,-1.02 -7.85916,-4.17902 -8.38916,-8.49902 -0.27,-4.11 -0.0301,-8.23131 -0.12012,-12.34131 6.76,0 13.79943,0.3309 20.16944,-2.3291 5.59999,-2.17 11.08995,-6.01084 13.20996,-11.86084 1.86,-4.97 0.0799,-10.67936 -3.58008,-14.33936 -5.77,-5.9 -14.26912,-8.36973 -22.34913,-8.46972 -11.01,-0.05 -22.031,0.0292 -33.041,-0.0308 -0.4575,0.01 -0.92227,0.002 -1.38868,0 z m 27.00879,4.27002 c 5.83,0.33 11.01109,4.54965 12.62109,10.13965 1.67,5.28 -0.28039,11.29065 -4.40039,14.91064 -1.24,0.61001 -2.37097,1.38065 -3.50098,2.16065 -1.53999,0.52 -3.10947,0.88914 -4.70947,1.11914 -0.05,-9.45 -0.0302,-18.89008 -0.0103,-28.33008 z"/>
      <path d="m 604.57826,340.18789 c 0.89,2.03 1.78991,4.07037 2.6499,6.13037 -2.35999,5.11 -4.66012,10.24016 -6.87011,15.41015 -0.44,0.97001 -0.89008,1.9304 -1.33008,2.9004 -4.27,9.48999 -8.4395,19.02 -12.7295,28.5 -1.26,2.82999 -3.59109,5.24961 -6.62109,6.0996 -1.86,0.86001 -4.71879,0.74948 -5.25879,3.20948 7.45,0.32 14.91963,0.0399 22.36963,0.16992 1.68,-0.24 3.95957,0.59106 5.05958,-1.16894 -2.89001,-2.08 -8.27052,-1.63135 -9.02052,-5.88135 0.20001,-4.7 3.06056,-8.74902 4.81055,-12.99903 8.61001,0.14001 17.21985,-0.0109 25.83985,0.0791 1.47999,3.65 3.45031,7.12015 4.57031,10.91016 0.74,2.22999 -0.50932,4.80042 -2.79932,5.44042 -2.01,1.07 -5.29059,0.79028 -5.85058,3.53027 13.6,0.05 27.21052,0.21918 40.81057,-0.0908 -0.59002,-2.45001 -3.46057,-2.35998 -5.33062,-3.22998 -3.36,-0.91001 -5.66963,-3.78967 -6.90968,-6.90967 -7.70992,-17.37 -15.4599,-34.7301 -23.18991,-52.1001 -6.73998,-0.01 -13.47019,-0.01 -20.20019,0 z m 5.90918,13.31983 c 3.43,7.71999 6.88078,15.42039 10.30078,23.15038 h -20.60009 c 3.42,-7.72 6.84931,-15.44038 10.29931,-23.15038 z"/>
      <path d="m 744.74626,341.63369 c -6.8766,-0.0346 -13.74555,1.59473 -19.70805,5.09472 -7.94002,4.52001 -14.0997,12.56026 -15.21975,21.76026 -0.78997,5.1 0.3795,10.2195 2.16945,14.97949 0.23003,0.33 0.7107,0.98983 0.9507,1.31983 5.40998,10.63 17.19885,16.94066 28.85888,17.68066 10.14,0.66 21.35107,-1.74058 28.37107,-9.60059 2.45003,-2.97 5.0787,-6.42949 4.90875,-10.47949 -2.46,2.42001 -3.9591,5.67928 -6.76905,7.75928 -8.38005,7.04 -21.9006,6.08 -29.62065,-1.5 -10.35,-9.89 -8.93025,-29.16899 2.6997,-37.45898 7.32,-5.18001 18.21075,-4.06045 24.49073,2.28954 2.95005,2.65001 4.51057,6.37002 6.83062,9.52002 0.90998,-5.89999 0.51983,-11.97078 -0.6402,-17.80077 -2.37997,0.19999 -4.71007,0.84087 -7.1001,0.90087 -2.77995,-0.54999 -5.34022,-1.8499 -8.03025,-2.6499 -3.9375,-1.17375 -8.06595,-1.79414 -12.19185,-1.81494 z"/>
      <path d="m 829.28821,341.63808 c -0.0203,6.13001 0.0292,12.25086 -0.0308,18.38087 1.2,0.12 2.4009,0.009 2.69093,-1.4209 1.31002,-2.84 2.39895,-6.02954 5.20897,-7.76954 4.76003,-3.48 10.9602,-2.09961 16.4502,-2.3496 -0.01,13.69999 0.0195,27.38886 -0.0105,41.08886 0.17003,4.65 -3.59865,8.58975 -7.90867,9.73975 -1.77998,0.81 -4.5303,0.76107 -5.03025,3.10107 15.42,0.18 30.89932,0.51008 46.29929,-0.16992 -2.1,-3.28 -6.96037,-2.44095 -9.59032,-5.23095 -5.85,-4.81001 -2.64923,-13.07905 -3.65918,-19.51905 -0.01,-0.45 -0.03,-1.34004 -0.0495,-1.79004 0.40995,-9.06 0.0503,-18.14973 0.18015,-27.21972 5.91998,0.18 12.90008,-1.22036 17.6001,3.38964 3.00998,2.22 2.62005,7.02022 6.06008,8.72022 1.17,-6.22 0.23002,-12.65069 0.51997,-18.95069 -22.90995,-0.01 -45.82042,0.01 -68.73044,0 z"/>
   </g>
</svg>